# xmcd
#
# Track frame offsets:
#	150
#	17798
#	33164
#	44409
#	74817
#	90493
#	102725
#	116201
#	131716
#	155603
#
# Disc length: 2307 seconds
#
# Revision: 1
# Processed by: cddbd v1.5PL3 Copyright (c) Steve Scherf et al.
# Submitted via: CDmax 2.0
#
DISCID=9009010a
DTITLE=Winer-Linien Blues Band - Drivin'
DYEAR=1998
DGENRE=Blues
TTITLE0=Hug You, Squeeze You
TTITLE1=Close To You
TTITLE2=Drivin'
TTITLE3=Since You Left Me
TTITLE4=Too Shy
TTITLE5=Guitar Hurricane
TTITLE6=That's Allright
TTITLE7=Listen To Your Footsteps
TTITLE8=Against The Law
TTITLE9=Bonus
EXTD=
EXTT0=
EXTT1=
EXTT2=
EXTT3=
EXTT4=
EXTT5=
EXTT6=
EXTT7=
EXTT8=
EXTT9=
PLAYORDER=
